<?xml version="1.0" encoding="UTF-8"?>
<svg width="24" height="24" viewBox="0 0 24 24" fill="none" xmlns="http://www.w3.org/2000/svg">
  <path d="M14 8H15C15.5304 8 16.0391 8.21071 16.4142 8.58579C16.7893 8.96086 17 9.46957 17 10V18C17 18.5304 16.7893 19.0391 16.4142 19.4142C16.0391 19.7893 15.5304 20 15 20H9C8.46957 20 7.96086 19.7893 7.58579 19.4142C7.21071 19.0391 7 18.5304 7 18V10C7 9.46957 7.21071 8.96086 7.58579 8.58579C7.96086 8.21071 8.46957 8 9 8H10" stroke="#6D28D9" stroke-width="2" stroke-linecap="round" stroke-linejoin="round"/>
  <path d="M12 15V18" stroke="#6D28D9" stroke-width="2" stroke-linecap="round" stroke-linejoin="round"/>
  <path d="M12 4V8" stroke="#6D28D9" stroke-width="2" stroke-linecap="round" stroke-linejoin="round"/>
  <path d="M10 6H14" stroke="#6D28D9" stroke-width="2" stroke-linecap="round" stroke-linejoin="round"/>
</svg>